<svg width="21" height="21" viewBox="0 0 21 21" fill="none" xmlns="http://www.w3.org/2000/svg">
<path d="M16.0833 19.4167H19.4167V17.4167C19.4167 15.5757 17.9243 14.0833 16.0833 14.0833M11.4167 4.74739C11.4167 6.95529 9.626 8.74478 7.41667 8.74478C5.20733 8.74478 3.41667 6.95529 3.41667 4.74739C3.41667 2.5395 5.20733 0.75 7.41667 0.75C9.626 0.75 11.4167 2.5395 11.4167 4.74739ZM14.0833 19.4045H0.75C0.75 18.4578 0.75 17.5571 0.75 16.7415C0.75 14.5324 2.54086 12.7422 4.75 12.7422H10.0833C12.2925 12.7422 14.0833 14.5324 14.0833 16.7415C14.0833 17.5571 14.0833 18.4578 14.0833 19.4045ZM15.4167 11.4167C13.9439 11.4167 12.75 10.2228 12.75 8.75C12.75 7.27724 13.9439 6.08333 15.4167 6.08333C16.8894 6.08333 18.0833 7.27724 18.0833 8.75C18.0833 10.2228 16.8894 11.4167 15.4167 11.4167Z" stroke="#051438" stroke-width="1.5"/>
</svg>
