<svg width="21" height="21" viewBox="0 0 21 21" fill="none" xmlns="http://www.w3.org/2000/svg">
<path d="M4.75 15.4071H5.5V14.6571H4.75V15.4071ZM4.75 19.4045H4C4 19.6885 4.16045 19.9482 4.41448 20.0752C4.66852 20.2023 4.97253 20.175 5.19981 20.0046L4.75 19.4045ZM10.0833 15.4071V14.6571H9.83346L9.63352 14.8069L10.0833 15.4071ZM6.08333 5.32983H5.33333V6.82983H6.08333V6.07983V5.32983ZM14.0833 6.82983H14.8333V5.32983H14.0833V6.07983V6.82983ZM6.08333 9.32723H5.33333V10.8272H6.08333V10.0772V9.32723ZM11.4167 10.8272H12.1667V9.32723H11.4167V10.0772V10.8272ZM4.75 15.4071H4V19.4045H4.75H5.5V15.4071H4.75ZM4.75 19.4045L5.19981 20.0046L10.5331 16.0072L10.0833 15.4071L9.63352 14.8069L4.30019 18.8043L4.75 19.4045ZM10.0833 15.4071V16.1571H18.0833V15.4071V14.6571H10.0833V15.4071ZM18.0833 15.4071V16.1571C19.2344 16.1571 20.1667 15.2262 20.1667 14.0746H19.4167H18.6667C18.6667 14.3968 18.4069 14.6571 18.0833 14.6571V15.4071ZM19.4167 14.0746H20.1667V2.08244H19.4167H18.6667V14.0746H19.4167ZM19.4167 2.08244H20.1667C20.1667 0.930891 19.2344 0 18.0833 0V0.75V1.5C18.4069 1.5 18.6667 1.76028 18.6667 2.08244H19.4167ZM18.0833 0.75V0H2.08333V0.75V1.5H18.0833V0.75ZM2.08333 0.75V0C0.932267 0 0 0.930891 0 2.08244H0.75H1.5C1.5 1.76028 1.75973 1.5 2.08333 1.5V0.75ZM0.75 2.08244H0V14.0746H0.75H1.5V2.08244H0.75ZM0.75 14.0746H0C0 15.2262 0.932267 16.1571 2.08333 16.1571V15.4071V14.6571C1.75973 14.6571 1.5 14.3968 1.5 14.0746H0.75ZM2.08333 15.4071V16.1571H4.75V15.4071V14.6571H2.08333V15.4071ZM6.08333 6.07983V6.82983H14.0833V6.07983V5.32983H6.08333V6.07983ZM6.08333 10.0772V10.8272H11.4167V10.0772V9.32723H6.08333V10.0772Z" fill="#051438"/>
</svg>
