<svg width="18" height="18" viewBox="0 0 18 18" fill="none" xmlns="http://www.w3.org/2000/svg">
<path fill-rule="evenodd" clip-rule="evenodd" d="M3.17573 15.9515V0.6C3.17573 0.268629 3.44436 0 3.77573 0C4.1071 0 4.37573 0.268629 4.37573 0.6V15.9515L6.5272 13.8C6.76152 13.5657 7.14141 13.5657 7.37573 13.8C7.61004 14.0343 7.61004 14.4142 7.37573 14.6485L4.19999 17.8243C3.96568 18.0586 3.58578 18.0586 3.35147 17.8243L0.175729 14.6485C-0.0585855 14.4142 -0.0585858 14.0343 0.175729 13.8C0.410043 13.5657 0.789943 13.5657 1.02426 13.8L3.17573 15.9515ZM17.5757 4.2C17.5757 4.53137 17.3071 4.8 16.9757 4.8H10.9757C10.6444 4.8 10.3757 4.53137 10.3757 4.2C10.3757 3.86863 10.6444 3.6 10.9757 3.6H16.9757C17.3071 3.6 17.5757 3.86863 17.5757 4.2ZM15.1757 9C15.1757 9.33137 14.9071 9.6 14.5757 9.6H10.9757C10.6444 9.6 10.3757 9.33137 10.3757 9C10.3757 8.66863 10.6444 8.4 10.9757 8.4H14.5757C14.9071 8.4 15.1757 8.66863 15.1757 9ZM12.7757 13.8C12.7757 14.1314 12.5071 14.4 12.1757 14.4H10.9757C10.6444 14.4 10.3757 14.1314 10.3757 13.8C10.3757 13.4686 10.6444 13.2 10.9757 13.2H12.1757C12.5071 13.2 12.7757 13.4686 12.7757 13.8Z" fill="#0B0C7D"/>
</svg>
