<svg width="21" height="21" viewBox="0 0 21 21" fill="none" xmlns="http://www.w3.org/2000/svg">
<path d="M4.75 7.34998L4.11725 6.94732L4 7.13158V7.34998H4.75ZM8.34681 1.69785L8.97955 2.10051V2.10051L8.34681 1.69785ZM11.9027 3.71118L11.2319 3.37577V3.37577L11.9027 3.71118ZM10.0833 7.34998L9.41251 7.01457C9.29627 7.24706 9.30869 7.52316 9.44535 7.74428C9.582 7.96539 9.8234 8.09998 10.0833 8.09998V7.34998ZM19.4167 14.0166L20.0167 14.4666L20.1667 14.2666V14.0166H19.4167ZM16.2167 18.2833L16.8167 18.7333V18.7333L16.2167 18.2833ZM11.1254 1.04191L11.5113 0.398787V0.398787L11.1254 1.04191ZM0.75 6.68331H0V20.0166H0.75H1.5V6.68331H0.75ZM4.75 7.34998L5.38275 7.75264L8.97955 2.10051L8.34681 1.69785L7.71406 1.2952L4.11725 6.94732L4.75 7.34998ZM11.9027 3.71118L11.2319 3.37577L9.41251 7.01457L10.0833 7.34998L10.7542 7.68539L12.5736 4.04659L11.9027 3.71118ZM10.0833 7.34998V8.09998H16.75V7.34998V6.59998H10.0833V7.34998ZM19.4167 10.0166H18.6667V14.0166H19.4167H20.1667V10.0166H19.4167ZM19.4167 14.0166L18.8167 13.5666L15.6167 17.8333L16.2167 18.2833L16.8167 18.7333L20.0167 14.4666L19.4167 14.0166ZM14.0833 19.35V18.6H7.41667V19.35V20.1H14.0833V19.35ZM4.75 16.6833H5.5V7.34998H4.75H4V16.6833H4.75ZM16.75 7.34998V8.09998C17.8085 8.09998 18.6667 8.9581 18.6667 10.0166H19.4167H20.1667C20.1667 8.12967 18.637 6.59998 16.75 6.59998V7.34998ZM7.41667 19.35V18.6C6.35812 18.6 5.5 17.7419 5.5 16.6833H4.75H4C4 18.5703 5.52969 20.1 7.41667 20.1V19.35ZM11.1254 1.04191L10.7396 1.68503C11.3202 2.03341 11.5347 2.77011 11.2319 3.37577L11.9027 3.71118L12.5736 4.04659C13.2269 2.73988 12.7641 1.15044 11.5113 0.398787L11.1254 1.04191ZM16.2167 18.2833L15.6167 17.8333C15.2547 18.3159 14.6866 18.6 14.0833 18.6V19.35V20.1C15.1588 20.1 16.1714 19.5936 16.8167 18.7333L16.2167 18.2833ZM8.34681 1.69785L8.97955 2.10051C9.35666 1.50791 10.1372 1.32364 10.7396 1.68503L11.1254 1.04191L11.5113 0.398787C10.2118 -0.380918 8.52768 0.0166504 7.71406 1.2952L8.34681 1.69785Z" fill="#051438"/>
</svg>
