<svg width="21" height="21" viewBox="0 0 21 21" fill="none" xmlns="http://www.w3.org/2000/svg">
<path d="M4.75 17.4167V16.7498C4.75 14.5407 6.54086 12.75 8.75 12.75H11.4167C13.6258 12.75 15.4167 14.5407 15.4167 16.7498V17.4167M10.0833 4.75C8.61057 4.75 7.41667 5.94391 7.41667 7.41667C7.41667 8.88943 8.61057 10.0833 10.0833 10.0833C11.5561 10.0833 12.75 8.88943 12.75 7.41667C12.75 5.94391 11.5561 4.75 10.0833 4.75ZM10.0833 19.4167C4.92868 19.4167 0.75 15.238 0.75 10.0833C0.75 4.92868 4.92868 0.75 10.0833 0.75C15.238 0.75 19.4167 4.92868 19.4167 10.0833C19.4167 15.238 15.238 19.4167 10.0833 19.4167Z" stroke="#051438" stroke-width="1.5" stroke-linecap="square"/>
</svg>
